<?xml version="1.0" standalone="no"?><!DOCTYPE svg PUBLIC "-//W3C//DTD SVG 1.1//EN" "http://www.w3.org/Graphics/SVG/1.1/DTD/svg11.dtd"><svg t="1530665931020" class="icon" style="" viewBox="0 0 1024 1024" version="1.1" xmlns="http://www.w3.org/2000/svg" p-id="2002" xmlns:xlink="http://www.w3.org/1999/xlink" width="200" height="200"><defs><style type="text/css"></style></defs><path d="M938.154667 396.663467L921.6 392.533333v170.666667l16.554667-4.130133A68.3008 68.3008 0 0 0 989.866667 492.8512v-29.934933c0-31.3344-21.333333-58.641067-51.712-66.2528zM375.466667 307.2v341.333333l443.733333 136.533334V170.666667zM307.2 314.026667l-211.592533 21.162666A68.266667 68.266667 0 0 0 34.133333 403.114667v149.504a68.266667 68.266667 0 0 0 61.474134 67.925333L307.2 641.706667V314.026667z" fill="" p-id="2003"></path><path d="M155.136 491.9296L217.770667 859.067733a34.065067 34.065067 0 0 0 33.621333 28.398934H273.066667a34.133333 34.133333 0 0 0 34.133333-34.133334l-0.1024-242.756266-151.9616-118.647467zM802.133333 819.2a51.2 51.2 0 0 0 51.2-51.2v-580.266667a51.2 51.2 0 0 0-102.4 0v580.266667a51.2 51.2 0 0 0 51.2 51.2z" fill="" p-id="2004"></path></svg>